<?xml version="1.0" encoding="iso-8859-1"?>
<!-- Generator: Adobe Illustrator 19.0.0, SVG Export Plug-In . SVG Version: 6.00 Build 0)  -->
<svg version="1.1" id="Layer_1" xmlns="http://www.w3.org/2000/svg" xmlns:xlink="http://www.w3.org/1999/xlink" x="0px" y="0px"
	 viewBox="0 0 512 512" style="enable-background:new 0 0 512 512;" xml:space="preserve">
<rect x="23.349" y="190.317" style="fill:#D35B38;" width="465.298" height="243.639"/>
<rect x="10.199" y="433.956" style="fill:#F2F2F2;" width="491.602" height="31.934"/>
<rect x="337.93" y="270.666" style="fill:#FFAD61;" width="102.165" height="163.289"/>
<rect x="73.924" y="257.52" style="fill:#BCC987;" width="217.478" height="65.754"/>
<g>
	<rect x="73.924" y="323.264" style="fill:#FFAD61;" width="217.478" height="37.426"/>
	<path style="fill:#FFAD61;" d="M166.631,64.541c0-10.18-8.534-18.432-19.06-18.432h-28.066c-10.527,0-19.06,8.252-19.06,18.432
		v10.87h66.187L166.631,64.541L166.631,64.541z"/>
</g>
<path style="fill:#BCC987;" d="M161.264,109.438L161.264,109.438V75.41H105.81v34.029l0,0
	c-20.612,12.185-33.577,36.663-33.577,63.392v17.492h122.609v-17.492C194.84,146.102,181.875,121.623,161.264,109.438z"/>
<path style="fill:#FFAD61;" d="M289.492,64.541c0-10.18-8.534-18.432-19.06-18.432h-28.066c-10.527,0-19.06,8.252-19.06,18.432
	v10.87h66.187V64.541z"/>
<path style="fill:#BCC987;" d="M284.126,109.438L284.126,109.438V75.41h-55.454v34.029l0,0
	c-20.612,12.185-33.577,36.663-33.577,63.392v17.492h122.609v-17.492C317.703,146.102,304.737,121.623,284.126,109.438z"/>
<g>
	<path style="fill:#4D3D36;" d="M501.801,423.758h-2.951V190.322c0-5.632-4.567-10.199-10.199-10.199H327.902v-7.292
		c0-28.25-12.729-54.097-33.578-68.918v-19.52c3.194-1.723,5.367-5.099,5.367-8.982V64.54c0-15.787-13.125-28.63-29.259-28.63
		h-28.066c-16.134,0-29.259,12.844-29.259,28.63v10.87c0,3.884,2.171,7.26,5.367,8.982v19.52
		c-9.781,6.954-17.774,16.333-23.505,27.249c-5.731-10.916-13.724-20.295-23.505-27.249v-19.52c3.194-1.723,5.367-5.099,5.367-8.982
		V64.54c0-15.787-13.126-28.63-29.259-28.63h-28.066c-16.134,0-29.259,12.844-29.259,28.63v10.87c0,3.884,2.171,7.26,5.367,8.982
		v19.52c-20.848,14.821-33.577,40.668-33.577,68.918v7.292H23.349c-5.633,0-10.199,4.567-10.199,10.199v233.435h-2.951
		C4.566,423.758,0,428.325,0,433.957v31.935c0,5.632,4.566,10.199,10.199,10.199h491.602c5.632,0,10.199-4.567,10.199-10.199
		v-31.935C512,428.325,507.433,423.758,501.801,423.758z M233.505,64.54c0-4.539,3.975-8.232,8.861-8.232h28.066
		c4.885,0,8.861,3.693,8.861,8.232v0.671h-45.788L233.505,64.54L233.505,64.54z M205.294,172.831
		c0-23.268,10.947-44.195,28.568-54.613c3.105-1.836,5.009-5.173,5.009-8.779V85.61h35.056v23.828c0,3.606,1.904,6.945,5.009,8.779
		c17.621,10.417,28.569,31.343,28.569,54.613v7.292h-102.21V172.831z M110.642,64.54c0-4.539,3.975-8.232,8.861-8.232h28.066
		c4.886,0,8.861,3.693,8.861,8.232v0.671h-45.789V64.54H110.642z M82.432,172.831c0-23.268,10.947-44.195,28.568-54.613
		c3.105-1.836,5.009-5.173,5.009-8.779V85.61h35.056v23.828c0,3.606,1.904,6.945,5.009,8.779
		c17.622,10.417,28.569,31.343,28.569,54.613v7.292H82.432V172.831z M478.452,200.521v223.236h-28.155v-153.09
		c0-5.632-4.567-10.199-10.199-10.199H337.928c-5.632,0-10.199,4.567-10.199,10.199v153.091H33.548V200.521H478.452z
		 M348.127,361.789h11.048c5.632,0,10.199-4.567,10.199-10.199c0-5.632-4.567-10.199-10.199-10.199h-11.048v-60.524h81.771v142.892
		h-81.771V361.789z M491.602,444.156v11.536H20.398v-11.536H491.602z"/>
	<path style="fill:#4D3D36;" d="M291.404,247.317H73.925c-5.633,0-10.199,4.567-10.199,10.199v65.75v37.426
		c0,5.632,4.566,10.199,10.199,10.199h217.478c5.632,0,10.199-4.567,10.199-10.199v-37.426v-65.75
		C301.603,251.885,297.035,247.317,291.404,247.317z M84.124,267.716h197.079v45.352H84.124V267.716z M281.204,350.494H84.124
		v-17.028h197.079v17.028H281.204z"/>
	<path style="fill:#4D3D36;" d="M354.117,233.325h101.154c5.632,0,10.199-4.567,10.199-10.199s-4.567-10.199-10.199-10.199H354.117
		c-5.632,0-10.199,4.567-10.199,10.199S348.485,233.325,354.117,233.325z"/>
	<path style="fill:#4D3D36;" d="M332.96,223.126c0-5.632-4.567-10.199-10.199-10.199h-8.093c-5.632,0-10.199,4.567-10.199,10.199
		s4.567,10.199,10.199,10.199h8.093C328.393,233.325,332.96,228.758,332.96,223.126z"/>
</g>
<g>
</g>
<g>
</g>
<g>
</g>
<g>
</g>
<g>
</g>
<g>
</g>
<g>
</g>
<g>
</g>
<g>
</g>
<g>
</g>
<g>
</g>
<g>
</g>
<g>
</g>
<g>
</g>
<g>
</g>
</svg>
