<?xml version="1.0" encoding="iso-8859-1"?>
<!-- Generator: Adobe Illustrator 19.0.0, SVG Export Plug-In . SVG Version: 6.00 Build 0)  -->
<svg version="1.1" id="Layer_1" xmlns="http://www.w3.org/2000/svg" xmlns:xlink="http://www.w3.org/1999/xlink" x="0px" y="0px"
	 viewBox="0 0 512.004 512.004" style="enable-background:new 0 0 512.004 512.004;" xml:space="preserve">
<circle style="fill:#E07F00;" cx="256.002" cy="256.002" r="256.002"/>
<circle style="fill:#FFD77D;" cx="256.002" cy="256.002" r="216.056"/>
<circle style="fill:#F7B202;" cx="256.002" cy="256.002" r="201.458"/>
<g>
	<circle style="fill:#FFD77D;" cx="256.002" cy="256.002" r="48.244"/>
	<rect x="249.512" y="44.109" style="fill:#FFD77D;" width="14.29" height="423.794"/>
	<rect x="44.109" y="248.855" style="fill:#FFD77D;" width="423.794" height="14.286"/>
	
		<rect x="249.097" y="44.332" transform="matrix(-0.7072 -0.707 0.707 -0.7072 256.3009 618.5966)" style="fill:#FFD77D;" width="14.286" height="423.79"/>
	
		<rect x="248.603" y="43.849" transform="matrix(0.7072 -0.707 0.707 0.7072 -105.9325 255.6944)" style="fill:#FFD77D;" width="14.286" height="423.79"/>
</g>
<g style="opacity:0.4;">
	<circle style="fill:#FFFFFF;" cx="373.417" cy="99.884" r="40.519"/>
	<circle style="fill:#FFFFFF;" cx="438.12" cy="166.605" r="20.262"/>
</g>
<g style="opacity:0.2;">
	<path d="M44.109,298.377C24.077,179.324,94.257,81.704,160.515,18.473C66.44,56.329,0,148.377,0,255.994
		c0,141.389,114.613,256.002,255.998,256.002c43.966,0,85.337-11.1,121.483-30.622C230.893,507.588,69.808,451.112,44.109,298.377z"
		/>
</g>
<g>
</g>
<g>
</g>
<g>
</g>
<g>
</g>
<g>
</g>
<g>
</g>
<g>
</g>
<g>
</g>
<g>
</g>
<g>
</g>
<g>
</g>
<g>
</g>
<g>
</g>
<g>
</g>
<g>
</g>
</svg>
